<svg xmlns="http://www.w3.org/2000/svg" xmlns:xlink="http://www.w3.org/1999/xlink" version="1.1">
	<g>
		<defs id="SvgjsDefs6097">
			<linearGradient id="SvgjsLinearGradient6104">
				<stop id="SvgjsStop6105" stop-color="#2d388a" offset="0"></stop>
				<stop id="SvgjsStop6106" stop-color="#00aeef" offset="1"></stop>
			</linearGradient>
			<linearGradient id="SvgjsLinearGradient6107">
				<stop id="SvgjsStop6108" stop-color="#2d388a" offset="0"></stop>
				<stop id="SvgjsStop6109" stop-color="#00aeef" offset="1"></stop>
			</linearGradient>
		</defs>
		<g id="SvgjsG6099" featureKey="nameFeature-0" fill="url(#SvgjsLinearGradient6107)">
			<path d="M15.48 11.64 c9.44 0 14.16 6.72 14.12 14.36 c0 3.4 -1.12 6.92 -3.28 9.56 l3.56 3.44 l-1.36 1.4 l-3.52 -3.36 c-2.28 2 -5.56 3.24 -9.52 3.24 c-9.52 0 -14.24 -6.8 -14.16 -14.52 c0.08 -7.44 4.8 -14.12 14.16 -14.12 z M15.48 13.68 c-7.12 0 -12.04 5.24 -12.04 12.08 c-0.08 6.64 3.92 12.48 12.04 12.48 c8 0 12 -5.8 12 -12.24 c0 -6.6 -4 -12.32 -12 -12.32 z M56.79600000000001 12 l2.12 0 l0 17.4 c0 14.64 -21.44 14.68 -21.44 0 l0 -17.4 l2.12 0 l0 17.4 c0 12.04 17.2 12 17.2 0 l0 -17.4 z M93.072 40 l-2.32 0 l-3.08 -6.88 l-16.72 0 l-3.04 6.88 l-2.32 0 l12.56 -28 l2.36 0 z M71.792 31.119999999999997 l15.04 0 l-7.52 -17.04 z M99.94800000000001 12 l0.92 0 l18.84 23.16 l0 -23.16 l2.12 0 l0 28 l-0.84 0 l-18.88 -23.12 l0 23.12 l-2.16 0 l0 -28 z M139.70400000000004 40 l0 -26.04 l-10.12 0 l0 -1.92 l22.4 0 l0 1.92 l-10.12 0 l0 26.04 l-2.16 0 z M179.06000000000003 12 l2.12 0 l0 17.4 c0 14.64 -21.44 14.68 -21.44 0 l0 -17.4 l2.12 0 l0 17.4 c0 12.04 17.2 12 17.2 0 l0 -17.4 z M215.17600000000004 40 l0 -24.88 l-10.72 16.4 l-0.72 0 l-10.8 -16.4 l0 24.88 l-2.16 0 l0 -28 l2.56 0 l10.72 16.32 l10.6 -16.32 l2.64 0 l0 28 l-2.12 0 z M248.81200000000007 34.76 l1.44 1.36 c-2.8 2.8 -6.52 4.2 -10.2 4.2 c-9.44 0 -14.36 -6.6 -14.4 -14.16 c-0.08 -7.48 4.8 -14.48 14.4 -14.48 c3.68 0 7.4 1.4 10.2 4.2 l-1.48 1.28 c-2.4 -2.4 -5.56 -3.56 -8.72 -3.56 c-8.16 0 -12.36 5.76 -12.32 12.48 c0.08 6.56 4.24 12.24 12.32 12.24 c3.16 0 6.36 -1.2 8.76 -3.56 z M267.9680000000001 24 l8.52 -11.96 l2.32 0 l0 0.04 l-9.52 13.56 l10.28 14.32 l0 0.04 l-2.56 0 l-9.04 -12.8 l-9.04 12.8 l-2.56 0 l0 -0.04 l10.28 -14.32 l-9.52 -13.56 l0 -0.04 l2.36 0 z"></path>
		</g>
	</g>
</svg>