<svg xmlns="http://www.w3.org/2000/svg" xmlns:xlink="http://www.w3.org/1999/xlink" version="1.1" viewBox="0 0 361.36 63.64">
	<g style="transform: translate(-9px, 10px);">
		<defs id="SvgjsDefs6097">
			<linearGradient id="SvgjsLinearGradient6104">
				<stop id="SvgjsStop6105" stop-color="#2d388a" offset="0"></stop>
				<stop id="SvgjsStop6106" stop-color="#00aeef" offset="1"></stop>
			</linearGradient>
			<linearGradient id="SvgjsLinearGradient6107">
				<stop id="SvgjsStop6108" stop-color="#2d388a" offset="0"></stop>
				<stop id="SvgjsStop6109" stop-color="#00aeef" offset="1"></stop>
			</linearGradient>
		</defs>
		<g id="SvgjsG6098" featureKey="symbolFeature-0" transform="matrix(-0.7738355099902953,0,0,0.7738355099902953,79.51034402291131,-16.873981124534716)" fill="url(#SvgjsLinearGradient6104)">
			<g xmlns="http://www.w3.org/2000/svg">
				<polygon fill="none" points="62.873,41.245 58.475,48.867 41.526,48.867 37.126,41.245 27.018,41.245 21.963,50 27.018,58.754    37.126,58.754 41.526,51.133 58.475,51.133 62.873,58.754 72.982,58.754 78.037,50 72.982,41.245  "></polygon>
				<path d="M87.1,40.302l-3.945-3.946H62.65l-6.041,10.462H43.39l-6.609-11.447l6.609-11.448h13.219l6.041,10.462h18.533L59.697,12.9   C57.105,10.31,53.664,8.883,50,8.883c-3.664,0-7.108,1.426-9.698,4.017L12.9,40.302c-2.59,2.59-4.017,6.034-4.017,9.697   c0,3.665,1.427,7.106,4.017,9.698l4.338,4.338H37.35l6.04-10.461h13.219l6.609,11.447l-6.609,11.449H43.39l-6.04-10.465H19.209   L40.302,87.1c2.59,2.59,6.034,4.018,9.698,4.018c3.662,0,7.105-1.428,9.697-4.018L87.1,59.697c2.59-2.592,4.018-6.035,4.018-9.698   C91.117,46.336,89.689,42.893,87.1,40.302z M72.982,58.754H62.873l-4.398-7.621H41.526l-4.399,7.621H27.018L21.963,50l5.054-8.754   h10.109l4.399,7.622h16.949l4.398-7.622h10.109L78.037,50L72.982,58.754z"></path>
				<polygon points="54.563,72.924 59.125,65.021 54.563,57.121 45.438,57.121 40.876,65.021 45.438,72.924  "></polygon>
				<polygon points="45.438,27.469 40.876,35.371 45.438,43.272 54.563,43.272 59.125,35.371 54.563,27.469  "></polygon>
			</g>
		</g>
		<g id="SvgjsG6099" featureKey="nameFeature-0" transform="matrix(1.0291632446125325,0,0,1.0291632446125325,82.64253833652828,-4.979460520625038)" fill="url(#SvgjsLinearGradient6107)">
			<path d="M15.48 11.64 c9.44 0 14.16 6.72 14.12 14.36 c0 3.4 -1.12 6.92 -3.28 9.56 l3.56 3.44 l-1.36 1.4 l-3.52 -3.36 c-2.28 2 -5.56 3.24 -9.52 3.24 c-9.52 0 -14.24 -6.8 -14.16 -14.52 c0.08 -7.44 4.8 -14.12 14.16 -14.12 z M15.48 13.68 c-7.12 0 -12.04 5.24 -12.04 12.08 c-0.08 6.64 3.92 12.48 12.04 12.48 c8 0 12 -5.8 12 -12.24 c0 -6.6 -4 -12.32 -12 -12.32 z M56.79600000000001 12 l2.12 0 l0 17.4 c0 14.64 -21.44 14.68 -21.44 0 l0 -17.4 l2.12 0 l0 17.4 c0 12.04 17.2 12 17.2 0 l0 -17.4 z M93.072 40 l-2.32 0 l-3.08 -6.88 l-16.72 0 l-3.04 6.88 l-2.32 0 l12.56 -28 l2.36 0 z M71.792 31.119999999999997 l15.04 0 l-7.52 -17.04 z M99.94800000000001 12 l0.92 0 l18.84 23.16 l0 -23.16 l2.12 0 l0 28 l-0.84 0 l-18.88 -23.12 l0 23.12 l-2.16 0 l0 -28 z M139.70400000000004 40 l0 -26.04 l-10.12 0 l0 -1.92 l22.4 0 l0 1.92 l-10.12 0 l0 26.04 l-2.16 0 z M179.06000000000003 12 l2.12 0 l0 17.4 c0 14.64 -21.44 14.68 -21.44 0 l0 -17.4 l2.12 0 l0 17.4 c0 12.04 17.2 12 17.2 0 l0 -17.4 z M215.17600000000004 40 l0 -24.88 l-10.72 16.4 l-0.72 0 l-10.8 -16.4 l0 24.88 l-2.16 0 l0 -28 l2.56 0 l10.72 16.32 l10.6 -16.32 l2.64 0 l0 28 l-2.12 0 z M248.81200000000007 34.76 l1.44 1.36 c-2.8 2.8 -6.52 4.2 -10.2 4.2 c-9.44 0 -14.36 -6.6 -14.4 -14.16 c-0.08 -7.48 4.8 -14.48 14.4 -14.48 c3.68 0 7.4 1.4 10.2 4.2 l-1.48 1.28 c-2.4 -2.4 -5.56 -3.56 -8.72 -3.56 c-8.16 0 -12.36 5.76 -12.32 12.48 c0.08 6.56 4.24 12.24 12.32 12.24 c3.16 0 6.36 -1.2 8.76 -3.56 z M267.9680000000001 24 l8.52 -11.96 l2.32 0 l0 0.04 l-9.52 13.56 l10.28 14.32 l0 0.04 l-2.56 0 l-9.04 -12.8 l-9.04 12.8 l-2.56 0 l0 -0.04 l10.28 -14.32 l-9.52 -13.56 l0 -0.04 l2.36 0 z"></path>
		</g>
	</g>
</svg>