<svg xmlns="http://www.w3.org/2000/svg" xmlns:xlink="http://www.w3.org/1999/xlink" version="1.1">
	<g>
		<defs id="SvgjsDefs6097">
			<linearGradient id="SvgjsLinearGradient6104">
				<stop id="SvgjsStop6105" stop-color="#2d388a" offset="0"></stop>
				<stop id="SvgjsStop6106" stop-color="#00aeef" offset="1"></stop>
			</linearGradient>
			<linearGradient id="SvgjsLinearGradient6107">
				<stop id="SvgjsStop6108" stop-color="#2d388a" offset="0"></stop>
				<stop id="SvgjsStop6109" stop-color="#00aeef" offset="1"></stop>
			</linearGradient>
		</defs>
		<g id="SvgjsG6098" featureKey="symbolFeature-0" fill="url(#SvgjsLinearGradient6104)">
			<g xmlns="http://www.w3.org/2000/svg">
				<polygon fill="none" points="62.873,41.245 58.475,48.867 41.526,48.867 37.126,41.245 27.018,41.245 21.963,50 27.018,58.754    37.126,58.754 41.526,51.133 58.475,51.133 62.873,58.754 72.982,58.754 78.037,50 72.982,41.245  "></polygon>
				<path d="M87.1,40.302l-3.945-3.946H62.65l-6.041,10.462H43.39l-6.609-11.447l6.609-11.448h13.219l6.041,10.462h18.533L59.697,12.9   C57.105,10.31,53.664,8.883,50,8.883c-3.664,0-7.108,1.426-9.698,4.017L12.9,40.302c-2.59,2.59-4.017,6.034-4.017,9.697   c0,3.665,1.427,7.106,4.017,9.698l4.338,4.338H37.35l6.04-10.461h13.219l6.609,11.447l-6.609,11.449H43.39l-6.04-10.465H19.209   L40.302,87.1c2.59,2.59,6.034,4.018,9.698,4.018c3.662,0,7.105-1.428,9.697-4.018L87.1,59.697c2.59-2.592,4.018-6.035,4.018-9.698   C91.117,46.336,89.689,42.893,87.1,40.302z M72.982,58.754H62.873l-4.398-7.621H41.526l-4.399,7.621H27.018L21.963,50l5.054-8.754   h10.109l4.399,7.622h16.949l4.398-7.622h10.109L78.037,50L72.982,58.754z"></path>
				<polygon points="54.563,72.924 59.125,65.021 54.563,57.121 45.438,57.121 40.876,65.021 45.438,72.924  "></polygon>
				<polygon points="45.438,27.469 40.876,35.371 45.438,43.272 54.563,43.272 59.125,35.371 54.563,27.469  "></polygon>
			</g>
		</g>
	</g>
</svg>