<svg id="Capa_1" fill="rgb(115, 127, 146)" enable-background="new 0 0 512 512" height="18" viewBox="0 0 512 512" width="18" xmlns="http://www.w3.org/2000/svg"><g><g><path d="m226 182c-41.355 0-75 33.645-75 75s33.645 75 75 75c20.643 0 39.364-8.385 52.939-21.926.023-.023.041-.048.064-.071s.048-.042.071-.064c13.541-13.575 21.926-32.296 21.926-52.939 0-41.355-33.645-75-75-75z"/><path d="m436 90h-345c-10.92 0-21.17-2.93-30-8.05v385.05c0 24.81 20.19 45 45 45h330c8.28 0 15-6.72 15-15v-392c0-8.28-6.72-15-15-15zm-61.82 315.18c-2.929 2.929-6.768 4.394-10.606 4.394s-7.678-1.464-10.606-4.394l-64.118-64.118c-17.536 13.144-39.299 20.938-62.85 20.938-57.897 0-105-47.103-105-105s47.103-105 105-105 105 47.103 105 105c0 23.551-7.794 45.315-20.938 62.85l64.118 64.118c5.858 5.857 5.858 15.354 0 21.212z"/></g><g><path d="m436 0c-9.405 0-330.361 0-345 0-16.542 0-30 13.458-30 30s13.458 30 30 30h330v-30h15c8.284 0 15-6.716 15-15s-6.716-15-15-15z"/></g></g></svg>